<mxfile host="Electron" modified="2024-02-08T21:05:11.250Z" agent="Mozilla/5.0 (X11; Linux x86_64) AppleWebKit/537.36 (KHTML, like Gecko) draw.io/22.1.18 Chrome/120.0.6099.199 Electron/28.1.2 Safari/537.36" etag="R2gB1xpqY60EMI79uXUj" version="22.1.18" type="device">
  <diagram name="Page-1" id="NFfwLeqIPU0fTDnUEk7j">
    <mxGraphModel dx="735" dy="456" grid="1" gridSize="10" guides="1" tooltips="1" connect="1" arrows="1" fold="1" page="1" pageScale="1" pageWidth="1100" pageHeight="850" math="0" shadow="0">
      <root>
        <mxCell id="0" />
        <mxCell id="1" parent="0" />
        <mxCell id="YoYg8TfnMRJHsJ8uBYh5-1" value="" style="shape=image;verticalLabelPosition=bottom;labelBackgroundColor=default;verticalAlign=top;aspect=fixed;imageAspect=0;image=https://icons.veryicon.com/png/o/construction-tools/network-device-system-icon/ap.png;" vertex="1" parent="1">
          <mxGeometry x="90" y="90" width="122" height="122" as="geometry" />
        </mxCell>
        <mxCell id="YoYg8TfnMRJHsJ8uBYh5-2" value="" style="shape=image;verticalLabelPosition=bottom;labelBackgroundColor=default;verticalAlign=top;aspect=fixed;imageAspect=0;image=https://icons.veryicon.com/png/o/construction-tools/network-device-system-icon/ap.png;" vertex="1" parent="1">
          <mxGeometry x="250" width="122" height="122" as="geometry" />
        </mxCell>
        <mxCell id="YoYg8TfnMRJHsJ8uBYh5-8" value="" style="verticalLabelPosition=bottom;html=1;verticalAlign=top;align=center;strokeColor=#6c8ebf;fillColor=#dae8fc;shape=mxgraph.azure.mobile;pointerEvents=1;strokeWidth=2;" vertex="1" parent="1">
          <mxGeometry x="180" y="290" width="56" height="80" as="geometry" />
        </mxCell>
        <mxCell id="YoYg8TfnMRJHsJ8uBYh5-10" value="" style="endArrow=none;html=1;rounded=0;entryX=0.5;entryY=1;entryDx=0;entryDy=0;strokeWidth=2;dashed=1;" edge="1" parent="1" target="YoYg8TfnMRJHsJ8uBYh5-1">
          <mxGeometry width="50" height="50" relative="1" as="geometry">
            <mxPoint x="200" y="280" as="sourcePoint" />
            <mxPoint x="250" y="230" as="targetPoint" />
          </mxGeometry>
        </mxCell>
        <mxCell id="YoYg8TfnMRJHsJ8uBYh5-11" value="" style="shape=image;verticalLabelPosition=bottom;labelBackgroundColor=default;verticalAlign=top;aspect=fixed;imageAspect=0;image=https://icons.veryicon.com/png/o/construction-tools/network-device-system-icon/ap.png;" vertex="1" parent="1">
          <mxGeometry x="330" y="154" width="122" height="122" as="geometry" />
        </mxCell>
        <mxCell id="YoYg8TfnMRJHsJ8uBYh5-12" value="" style="endArrow=none;html=1;rounded=0;entryX=0;entryY=1;entryDx=0;entryDy=0;strokeWidth=2;dashed=1;" edge="1" parent="1" target="YoYg8TfnMRJHsJ8uBYh5-2">
          <mxGeometry width="50" height="50" relative="1" as="geometry">
            <mxPoint x="220" y="280" as="sourcePoint" />
            <mxPoint x="211" y="212" as="targetPoint" />
          </mxGeometry>
        </mxCell>
        <mxCell id="YoYg8TfnMRJHsJ8uBYh5-13" value="" style="endArrow=none;html=1;rounded=0;entryX=0;entryY=0.75;entryDx=0;entryDy=0;strokeWidth=2;dashed=1;" edge="1" parent="1" target="YoYg8TfnMRJHsJ8uBYh5-11">
          <mxGeometry width="50" height="50" relative="1" as="geometry">
            <mxPoint x="250" y="300" as="sourcePoint" />
            <mxPoint x="458" y="202" as="targetPoint" />
          </mxGeometry>
        </mxCell>
        <mxCell id="YoYg8TfnMRJHsJ8uBYh5-14" value="&lt;font style=&quot;font-size: 16px;&quot;&gt;RSSI 1&lt;/font&gt;" style="text;html=1;align=center;verticalAlign=middle;resizable=0;points=[];autosize=1;strokeColor=none;fillColor=none;" vertex="1" parent="1">
          <mxGeometry x="90" y="228" width="70" height="30" as="geometry" />
        </mxCell>
        <mxCell id="YoYg8TfnMRJHsJ8uBYh5-15" value="&lt;font style=&quot;font-size: 16px;&quot;&gt;RSSI 2&lt;/font&gt;" style="text;html=1;align=center;verticalAlign=middle;resizable=0;points=[];autosize=1;strokeColor=none;fillColor=none;" vertex="1" parent="1">
          <mxGeometry x="236" y="200" width="70" height="30" as="geometry" />
        </mxCell>
        <mxCell id="YoYg8TfnMRJHsJ8uBYh5-16" value="&lt;font style=&quot;font-size: 16px;&quot;&gt;RSSI 3&lt;/font&gt;" style="text;html=1;align=center;verticalAlign=middle;resizable=0;points=[];autosize=1;strokeColor=none;fillColor=none;" vertex="1" parent="1">
          <mxGeometry x="276" y="276" width="70" height="30" as="geometry" />
        </mxCell>
        <mxCell id="YoYg8TfnMRJHsJ8uBYh5-17" value="&lt;span style=&quot;font-size: 16px;&quot;&gt;position &lt;br&gt;= f(RSSI vals)&lt;/span&gt;" style="text;html=1;align=center;verticalAlign=middle;resizable=0;points=[];autosize=1;strokeColor=none;fillColor=none;" vertex="1" parent="1">
          <mxGeometry x="270" y="306" width="120" height="50" as="geometry" />
        </mxCell>
      </root>
    </mxGraphModel>
  </diagram>
</mxfile>
